<?xml version="1.0" encoding="utf-8"?>
<!-- Generator: Adobe Illustrator 26.5.0, SVG Export Plug-In . SVG Version: 6.00 Build 0)  -->
<svg version="1.1" id="Calque_1" xmlns="http://www.w3.org/2000/svg" xmlns:xlink="http://www.w3.org/1999/xlink" x="0px" y="0px"
	 viewBox="0 0 40 40" style="enable-background:new 0 0 40 40;" xml:space="preserve">
<g>
	<g>
		<path d="M11,5.6c1.5,0,2.9,0.5,3.9,1.5c0.6,0.5,1.2,1.2,1.7,1.9c0.3,0.4,0.6,0.7,0.9,1.1l1.4,1.5l1.5-1.4c0.4-0.4,0.8-0.7,1.2-1.1
			c0.8-0.7,1.4-1.3,2.1-1.9c1.1-1,2.5-1.5,4-1.5c2.1,0,4,1,5.1,2.7c1.8,2.7,1.2,6.6-1.3,9c-2.1,1.9-4.1,3.9-6.2,5.8l-2.6,2.4
			c-0.4,0.4-0.8,0.7-1.2,1.1c-0.7,0.7-1.5,1.4-2.2,2.1c-1.3-1.3-2.7-2.5-4.1-3.8c-2.8-2.6-5.7-5.3-8.5-7.9c-1.5-1.5-2.3-3.5-2.1-5.6
			C5,9.4,6,7.7,7.7,6.6C8.7,6,9.8,5.6,11,5.6 M11,3.6c-1.5,0-3.1,0.4-4.4,1.3c-4.6,3-5.2,9.5-1.1,13.5c4.3,4.2,8.7,8.2,13.1,12.3
			c0.3,0.3,0.6,0.4,0.8,0.4c0.3,0,0.6-0.2,0.9-0.5c1.3-1.2,2.6-2.4,3.9-3.6c2.9-2.7,5.9-5.5,8.8-8.2c3.3-3.1,3.9-8,1.6-11.5
			c-1.6-2.4-4.2-3.6-6.8-3.6c-1.9,0-3.8,0.6-5.3,2c-1.1,0.9-2.1,1.9-3.3,3.1c-1-1.1-1.8-2.2-2.8-3.1C14.8,4.3,12.9,3.6,11,3.6
			L11,3.6z"/>
	</g>
</g>
</svg>
