<?xml version="1.0" encoding="utf-8"?>
<!-- Generator: Adobe Illustrator 26.5.0, SVG Export Plug-In . SVG Version: 6.00 Build 0)  -->
<svg version="1.1" id="Calque_1" xmlns="http://www.w3.org/2000/svg" xmlns:xlink="http://www.w3.org/1999/xlink" x="0px" y="0px"
	 viewBox="0 0 40 40" style="enable-background:new 0 0 40 40;" xml:space="preserve">
<style type="text/css">
	.st0{fill:url(#SVGID_1_);}
</style>
<g>
	<g>
		<linearGradient id="SVGID_1_" gradientUnits="userSpaceOnUse" x1="9.2687" y1="22.2324" x2="29.4855" y2="2.0155">
			<stop  offset="0" style="stop-color:#FF79DA"/>
			<stop  offset="1" style="stop-color:#9356DC"/>
		</linearGradient>
		<path class="st0" d="M19.1,8.7c-1-1.1-1.8-2.2-2.8-3.1C13.6,3.2,9.6,3,6.6,4.9c-4.6,3-5.2,9.5-1.1,13.5c4.3,4.2,8.7,8.2,13.1,12.3
			c0.6,0.6,1.1,0.5,1.7-0.1c1.3-1.2,2.6-2.4,3.9-3.6c2.9-2.7,5.9-5.5,8.8-8.2c3.3-3.1,3.9-8,1.6-11.5c-2.7-4.1-8.4-4.9-12.1-1.7
			C21.4,6.5,20.4,7.5,19.1,8.7z"/>
	</g>
</g>
</svg>
